<?xml version="1.0" encoding="UTF-8" standalone="no"?>
<svg
   version="1.1"
   id="Layer_1"
   x="0px"
   y="0px"
   viewBox="0 0 125 125"
   xml:space="preserve"
   sodipodi:docname="logo.svg"
   inkscape:version="1.2.1 (9c6d41e410, 2022-07-14)"
   width="125"
   height="125"
   inkscape:export-filename="logo.png"
   inkscape:export-xdpi="96"
   inkscape:export-ydpi="96"
   xmlns:inkscape="http://www.inkscape.org/namespaces/inkscape"
   xmlns:sodipodi="http://sodipodi.sourceforge.net/DTD/sodipodi-0.dtd"
   xmlns="http://www.w3.org/2000/svg"
   xmlns:svg="http://www.w3.org/2000/svg"><defs
     id="defs52" /><sodipodi:namedview
     id="namedview50"
     pagecolor="#ffffff"
     bordercolor="#000000"
     borderopacity="0.25"
     inkscape:showpageshadow="2"
     inkscape:pageopacity="0.0"
     inkscape:pagecheckerboard="0"
     inkscape:deskcolor="#d1d1d1"
     showgrid="false"
     inkscape:zoom="6.3639324"
     inkscape:cx="44.390792"
     inkscape:cy="61.439999"
     inkscape:window-width="1920"
     inkscape:window-height="1011"
     inkscape:window-x="0"
     inkscape:window-y="0"
     inkscape:window-maximized="1"
     inkscape:current-layer="Layer_1" /><style
     type="text/css"
     id="style43">.st0{fill-rule:evenodd;clip-rule:evenodd;}</style><g
     id="g47"
     style="fill:#ff5252;fill-opacity:1"
     transform="translate(13.035914,1.0640856)"><path
       class="st0"
       d="M 78.77,0 C 75.48,39.36 30.43,13.5 13.32,46.28 10.9,51.62 9.29,56.57 8.52,61.12 c -1.26,1.55 -2.42,3.22 -3.45,5 -5.22,9.05 -6.28,19.35 -3.78,28.71 2.51,9.35 8.58,17.75 17.63,22.97 9.05,5.22 19.35,6.28 28.71,3.78 9.35,-2.51 17.75,-8.58 22.97,-17.63 2.31,-4 3.8,-8.24 4.54,-12.54 5.32,-3.1 10.02,-7.48 13.62,-13.28 C 94.84,64.01 83.75,52.75 98.93,42.81 89.55,38.09 83.83,42.97 78.35,52.51 72.42,65.39 50.21,50.14 71.03,42.22 88.92,35.42 87.29,14.45 78.77,0 Z M 37.02,84.91 c 0.11,0 0.23,0 0.34,0.01 l 13.03,-9.76 c 1.51,-1.13 3.66,-0.83 4.79,0.68 1.13,1.51 0.83,3.66 -0.68,4.79 L 41.6,90.3 c -0.36,2.21 -2.27,3.9 -4.58,3.9 -2.56,0 -4.64,-2.08 -4.64,-4.64 0,-0.49 0.08,-0.96 0.22,-1.41 L 19.33,77.89 c -0.84,-0.65 -0.99,-1.85 -0.35,-2.69 0.65,-0.84 1.85,-0.99 2.69,-0.35 l 13.5,10.44 c 0.57,-0.24 1.19,-0.38 1.85,-0.38 z m 16.94,-27.8 c 16.06,9.27 21.08,28 11.8,44.06 -9.27,16.06 -28,21.08 -44.06,11.81 C 5.64,103.71 0.62,84.98 9.9,68.92 19.18,52.86 37.9,47.84 53.96,57.11 Z"
       id="path45"
       style="fill:#ff5252;fill-opacity:1" /></g></svg>
